<svg width="146" height="23" viewBox="0 0 146 23" fill="none" xmlns="http://www.w3.org/2000/svg">
<path d="M12.208 23H1.168V6.392L3.952 3.672H0.784V0.887999H12.208V3.672H4.336V11.544L6.672 9.176H12.208V11.928H4.336V20.216H12.208V23ZM28.2133 23H15.5733V16.088L25.0453 6.648V3.672H15.5733V0.887999H28.2133V7.736L18.7093 17.272V20.216H28.2133V23ZM46 11.928L43.216 14.712H40.656V23H37.488V14.712H34.928L32.176 11.928V0.887999H35.344V11.928H42.832V0.887999H46V11.928ZM69.9428 3.672H59.0628V9.176H66.3908L69.1108 11.928V20.216L66.3908 23H58.6468L55.8948 20.216V18.008L59.0628 14.968V20.216H65.9428V11.928H58.6468L55.8948 9.176V3.672L58.6468 0.887999H67.1588L69.9428 3.672ZM87.724 20.216L84.94 23H77.036L74.284 20.216V3.672L77.036 0.887999H84.94L87.724 3.672V5.976L84.556 9.176V3.672H77.452V20.216H84.556V17.88L87.724 14.712V20.216ZM106.273 23H103.105L103.169 20.76L96.8333 14.392L98.9773 11.928H103.105V3.672H95.6173V23H92.4493V6.392L95.2333 3.672H92.0653V0.887999H103.489L106.273 3.672V11.544L103.489 14.328H100.897V14.744L106.273 20.056V23ZM125.362 23H122.226V14.712H114.706V23H111.538V3.672L114.322 0.887999H125.362V23ZM124.21 3.672H114.706V14.328L117.106 11.928H122.226V5.656L124.21 3.672ZM145.523 11.928L142.739 14.712H134.867V23H131.699V6.392L134.483 3.672H131.315V0.887999H142.739L145.523 3.672V11.928ZM142.355 11.928V3.672H134.867V14.328L137.203 11.928H142.355Z" fill="#74A1CE"/>
</svg>
